<svg width="35" height="36" viewBox="0 0 35 36" fill="none" xmlns="http://www.w3.org/2000/svg">
<path fill-rule="evenodd" clip-rule="evenodd" d="M22.2747 18.667C21.9988 17.887 21.488 17.2117 20.8125 16.7341C20.137 16.2565 19.33 16 18.5027 16V15H16.5027V16C15.4418 16 14.4244 16.4214 13.6743 17.1716C12.9241 17.9217 12.5027 18.9391 12.5027 20C12.5027 21.0609 12.9241 22.0783 13.6743 22.8284C14.4244 23.5786 15.4418 24 16.5027 24V28C15.6327 28 14.8917 27.445 14.6157 26.667C14.5747 26.5397 14.5087 26.4219 14.4214 26.3206C14.3342 26.2193 14.2275 26.1365 14.1076 26.0772C13.9878 26.0178 13.8573 25.9831 13.7239 25.9751C13.5904 25.967 13.4567 25.9858 13.3306 26.0304C13.2045 26.0749 13.0887 26.1443 12.9899 26.2344C12.8911 26.3245 12.8114 26.4335 12.7554 26.5549C12.6995 26.6764 12.6685 26.8078 12.6642 26.9415C12.66 27.0751 12.6826 27.2082 12.7307 27.333C13.0065 28.113 13.5174 28.7883 14.1929 29.2659C14.8684 29.7435 15.6754 30 16.5027 30V31H18.5027V30C19.5636 30 20.581 29.5786 21.3311 28.8284C22.0813 28.0783 22.5027 27.0609 22.5027 26C22.5027 24.9391 22.0813 23.9217 21.3311 23.1716C20.581 22.4214 19.5636 22 18.5027 22V18C18.9163 17.9999 19.3198 18.128 19.6575 18.3668C19.9953 18.6055 20.2507 18.9431 20.3887 19.333C20.477 19.5831 20.6611 19.7879 20.9004 19.9023C21.0188 19.9589 21.1473 19.9917 21.2785 19.9987C21.4096 20.0056 21.5408 19.9867 21.6647 19.943C21.7885 19.8993 21.9025 19.8316 22.0002 19.7438C22.0979 19.656 22.1773 19.5498 22.234 19.4313C22.2906 19.3128 22.3233 19.1844 22.3303 19.0532C22.3373 18.9221 22.3184 18.7908 22.2747 18.667ZM16.5027 18C15.9723 18 15.4635 18.2107 15.0885 18.5858C14.7134 18.9609 14.5027 19.4696 14.5027 20C14.5027 20.5304 14.7134 21.0391 15.0885 21.4142C15.4635 21.7893 15.9723 22 16.5027 22V18ZM18.5027 28C19.0331 28 19.5418 27.7893 19.9169 27.4142C20.292 27.0391 20.5027 26.5304 20.5027 26C20.5027 25.4696 20.292 24.9609 19.9169 24.5858C19.5418 24.2107 19.0331 24 18.5027 24V28Z" fill="#FBFBFB"/>
<path fill-rule="evenodd" clip-rule="evenodd" d="M6.65567 2.621C9.10967 1.42 13.1357 0 17.5417 0C21.8557 0 25.7757 1.361 28.2167 2.546L28.3547 2.613C29.0907 2.977 29.6847 3.321 30.1027 3.6L26.4087 9C34.9247 17.706 41.5027 35.997 17.5417 35.997C-6.41933 35.997 -0.0183339 18.038 8.57167 9L4.90167 3.6C5.18467 3.415 5.54367 3.2 5.97167 2.972C6.18367 2.858 6.41167 2.74 6.65567 2.621ZM24.0347 8.928L26.9917 4.605C24.2417 4.803 20.9697 5.449 17.8197 6.361C15.5697 7.011 13.0697 6.912 10.7547 6.485C10.1713 6.37685 9.59194 6.2481 9.01767 6.099L10.9377 8.926C15.0527 10.391 19.9187 10.391 24.0347 8.928ZM9.78267 10.63C14.5977 12.49 20.3847 12.49 25.1997 10.628C27.2095 12.7467 28.8908 15.1544 30.1877 17.771C31.5397 20.529 32.2757 23.286 32.1557 25.662C32.0397 27.955 31.1377 29.914 29.0777 31.37C26.9307 32.887 23.3197 33.997 17.5407 33.997C11.7557 33.997 8.12767 32.906 5.96067 31.406C3.88567 29.968 2.97467 28.036 2.84567 25.774C2.71067 23.424 3.43067 20.681 4.77767 17.904C6.06267 15.256 7.85567 12.707 9.78267 10.63ZM8.63267 3.916C9.43267 4.154 10.2687 4.361 11.1167 4.518C13.2667 4.914 15.4227 4.972 17.2627 4.439C19.4069 3.81434 21.5877 3.32307 23.7927 2.968C21.9527 2.414 19.8007 2 17.5407 2C14.0957 2 10.8827 2.961 8.63267 3.916Z" fill="#FBFBFB"/>
</svg>
