<svg width="39" height="42" viewBox="0 0 39 42" fill="none" xmlns="http://www.w3.org/2000/svg">
<path d="M16.6701 0.000795705C16.2994 -0.000516795 15.9275 -0.000141798 15.5545 0.00145195C13.7595 0.0097957 11.9358 0.0569519 10.0965 0.125202L10.6286 2.45892C12.544 2.24236 14.6439 2.08111 16.7436 2.00048C17.8812 1.9568 19.0118 1.93373 20.1085 1.93955C23.3987 1.9567 26.3839 2.23298 28.337 2.98973L29.1721 3.31355L28.7992 4.12776C26.0748 10.0795 25.4447 15.8214 25.8716 21.4552C26.0824 14.7691 28.8616 8.82239 32.5101 1.19883C27.5454 0.373827 22.2319 0.0192641 16.6701 0.000701649V0.000795705ZM19.2983 3.63736C18.479 3.63801 17.6436 3.65461 16.8084 3.68667C12.9017 3.83667 9.00852 4.29511 6.47117 4.82067C9.30552 10.0781 11.5984 15.3476 13.079 20.4846C13.2631 20.4785 13.4475 20.4799 13.6315 20.4888C14.0082 20.5073 14.3808 20.5584 14.7448 20.6379C13.2378 15.8194 11.5212 11.3754 9.38736 6.93811L8.9052 5.93555L10.0008 5.74167C12.7529 5.25436 15.5935 5.06573 18.2971 5.06489C18.4773 5.06489 18.6571 5.06555 18.836 5.06714C20.5538 5.08214 22.2095 5.17101 23.7434 5.3048L24.7797 5.39526L24.4775 6.39061C22.7243 12.1621 22.3809 18.3604 23.3721 24.2577C23.3886 24.273 23.4053 24.2881 23.4215 24.3036C23.7789 24.1784 24.1133 24.0507 24.425 23.9142C23.6512 17.596 23.9941 11.0776 26.884 4.30158C25.2713 3.89067 22.8129 3.67589 20.1116 3.64214C19.8405 3.63879 19.5694 3.63713 19.2983 3.63736ZM32.8869 4.3297C29.9848 10.4756 27.9235 15.4006 27.5856 20.7175C29.4642 14.4548 33.0952 8.84076 37.2329 5.23392C35.7966 4.87567 34.3469 4.57403 32.8869 4.3297ZM5.23433 6.06679C3.47558 6.42942 1.75752 6.88973 0.0957031 7.52573C0.904391 8.22698 2.36633 9.53151 4.14008 11.2653C4.95645 10.425 5.78905 9.59489 6.65745 8.84001C6.1975 7.90828 5.72307 6.98376 5.23433 6.06679ZM18.549 6.76823C17.2721 6.76204 15.965 6.79861 14.6533 6.88945C14.5157 8.17214 13.757 9.37214 12.851 10.5523C14.2976 13.9712 15.547 17.46 16.6718 21.1642C18.3945 21.6723 20.0988 22.273 21.4793 22.9927C20.9665 19.0123 21.0366 14.9337 21.7025 10.9451C20.4945 9.69726 19.8652 8.31164 19.8148 6.7882C19.3929 6.77696 18.971 6.7703 18.549 6.76823ZM35.6132 9.29808C33.2947 12.045 31.2518 15.4853 29.8597 19.2273C32.4157 15.5915 35.5588 12.7556 38.9045 10.7523C37.8145 10.2516 36.7173 9.76683 35.6132 9.29808ZM7.4188 10.4192C6.05061 11.6556 4.69873 13.1396 3.29089 14.5533C6.31798 16.3525 8.8963 18.4831 10.9996 20.8965C11.1302 20.8471 11.2621 20.8028 11.3947 20.7624C10.4105 17.3784 9.06177 13.9155 7.4188 10.4192ZM29.2988 22.1147C27.7616 23.9699 26.3144 24.9493 24.3216 25.7307C24.5458 26.595 24.2129 27.5874 23.4466 28.3464C22.9958 28.7927 22.4294 29.3015 21.6012 29.6322C21.7207 29.7029 21.8426 29.7694 21.9668 29.8316C23.126 30.41 25.1737 30.2235 27.0762 29.3582C28.9728 28.4957 30.667 27.0059 31.295 25.4966C31.6097 24.6481 31.385 24.2056 30.834 23.5567C30.4417 23.095 29.8688 22.6295 29.2988 22.1148V22.1147ZM13.3539 22.1697C12.3494 22.1605 11.3292 22.4504 10.4861 23.0847C9.28705 23.9868 8.36267 25.5957 8.35442 28.3285V28.3472L8.35348 28.366C8.07973 34.1204 8.50348 36.7754 9.34302 38.2158C10.084 39.4873 11.3165 40.0959 13.1193 41.2153C13.2051 40.9897 13.2946 40.7123 13.3785 40.3623C13.592 39.4718 13.7686 38.2487 13.8805 36.8959C14.1045 34.1905 14.0718 30.9419 13.6972 28.6042L13.4993 27.3676L14.7196 27.6484C17.6835 28.3303 19.379 28.4108 20.3633 28.2372C21.3479 28.0634 21.6815 27.7194 22.259 27.1474C22.8019 26.61 22.7917 26.4166 22.6768 26.1142C22.5618 25.8117 22.1003 25.3131 21.3174 24.8361C19.7515 23.8821 17.0907 22.9976 14.6036 22.338C14.1957 22.23 13.7759 22.1735 13.3539 22.1697ZM31.082 28.6774C30.1433 29.5919 28.9881 30.3425 27.7748 30.8943C25.8077 31.7889 23.6439 32.1981 21.8488 31.6024C21.215 31.8383 20.8469 32.1093 20.6612 32.3337C20.4064 32.6415 20.3904 32.868 20.4768 33.1924C20.563 33.5168 20.8204 33.9019 21.1385 34.179C21.4566 34.4562 21.8347 34.6002 21.9785 34.6069C26.3654 34.8152 28.264 33.5563 30.6294 32.096C31.3192 31.6702 31.5832 30.8076 31.5171 29.9462C31.4841 29.5155 31.3587 29.1108 31.2141 28.8559C31.1781 28.7909 31.1337 28.7309 31.082 28.6774ZM15.502 29.5302C15.7577 31.8803 15.7619 34.6221 15.5622 37.0351C15.4453 38.4481 15.2645 39.7332 15.0195 40.7556C14.9129 41.2005 14.7956 41.595 14.6539 41.9424L28.4067 41.3363C28.2515 40.7598 28.0932 40.1809 27.935 39.6017C27.4067 39.7776 26.8666 39.9162 26.3188 40.0165L26.3229 40.0849L25.5433 40.1335C25.0632 40.191 24.5634 40.2228 24.0449 40.2265L16.183 40.7149L16.4167 39.6268C17.1618 36.1575 17.2305 33.1028 16.7709 29.7611C16.3465 29.6923 15.9234 29.6154 15.5019 29.5302H15.502ZM18.4994 29.9693C18.8695 32.963 18.825 35.8202 18.2738 38.8943L20.0798 38.7822C19.7966 38.3642 19.602 37.8927 19.508 37.3967C19.3865 36.7517 19.454 36.0338 19.876 35.4402C19.8947 35.4138 19.9148 35.3886 19.9348 35.3632C19.443 34.909 19.0322 34.3261 18.846 33.6266C18.6478 32.8818 18.7715 31.97 19.3613 31.2575C19.5562 31.0222 19.7918 30.8098 20.0685 30.6185C19.8238 30.4235 19.6093 30.2168 19.424 30.0014C19.1368 30.0034 18.8292 29.9927 18.4994 29.9693ZM30.9368 33.8866C28.7378 35.2229 26.2671 36.5 21.8984 36.2926C21.7558 36.2857 21.6141 36.2664 21.4748 36.235C21.3592 36.2868 21.2975 36.3527 21.2515 36.4175C21.1612 36.5445 21.1079 36.7738 21.1663 37.0844C21.2833 37.7056 21.8718 38.3865 22.4197 38.4502C26.2996 38.9014 28.9803 37.6321 30.608 36.1555C31.358 35.475 31.3643 35.0399 31.2539 34.5663C31.1986 34.3298 31.0767 34.1005 30.9368 33.8866ZM30.3103 38.4862C30.0498 38.6495 29.7825 38.8015 29.509 38.9418C29.6637 39.5091 29.8188 40.0764 29.9719 40.6438L31.8394 40.3089C31.3575 39.8976 30.9804 39.4695 30.6778 39.0436C30.5426 38.8534 30.4235 38.6685 30.3103 38.4862Z" fill="#FBFBFB"/>
</svg>
