<svg width="49" height="48" viewBox="0 0 49 48" fill="none" xmlns="http://www.w3.org/2000/svg">
<g clip-path="url(#clip0_601_3035)">
<path d="M24.5 11C26.3565 11 28.137 11.7375 29.4497 13.0503C30.7625 14.363 31.5 16.1435 31.5 18C31.5 19.8565 30.7625 21.637 29.4497 22.9497C28.137 24.2625 26.3565 25 24.5 25C22.6435 25 20.863 24.2625 19.5503 22.9497C18.2375 21.637 17.5 19.8565 17.5 18C17.5 16.1435 18.2375 14.363 19.5503 13.0503C20.863 11.7375 22.6435 11 24.5 11ZM10.5 16C11.62 16 12.66 16.3 13.56 16.84C13.26 19.7 14.1 22.54 15.82 24.76C14.82 26.68 12.82 28 10.5 28C8.9087 28 7.38258 27.3679 6.25736 26.2426C5.13214 25.1174 4.5 23.5913 4.5 22C4.5 20.4087 5.13214 18.8826 6.25736 17.7574C7.38258 16.6321 8.9087 16 10.5 16ZM38.5 16C40.0913 16 41.6174 16.6321 42.7426 17.7574C43.8679 18.8826 44.5 20.4087 44.5 22C44.5 23.5913 43.8679 25.1174 42.7426 26.2426C41.6174 27.3679 40.0913 28 38.5 28C36.18 28 34.18 26.68 33.18 24.76C34.9237 22.5088 35.7331 19.6724 35.44 16.84C36.34 16.3 37.38 16 38.5 16ZM11.5 36.5C11.5 32.36 17.32 29 24.5 29C31.68 29 37.5 32.36 37.5 36.5V40H11.5V36.5ZM0.5 40V37C0.5 34.22 4.28 31.88 9.4 31.2C8.22 32.56 7.5 34.44 7.5 36.5V40H0.5ZM48.5 40H41.5V36.5C41.5 34.44 40.78 32.56 39.6 31.2C44.72 31.88 48.5 34.22 48.5 37V40Z" fill="#FBFBFB"/>
</g>
<defs>
<clipPath id="clip0_601_3035">
<rect width="48" height="48" fill="white" transform="translate(0.5)"/>
</clipPath>
</defs>
</svg>
