<svg width="1525" height="664" viewBox="0 0 1525 664" fill="none" xmlns="http://www.w3.org/2000/svg">
<g clip-path="url(#clip0_723_2780)">
<mask id="mask0_723_2780" style="mask-type:luminance" maskUnits="userSpaceOnUse" x="-518" y="-373" width="2561" height="1441">
<path d="M-517.122 -372.559H2042.88V1067.44H-517.122V-372.559Z" fill="white"/>
</mask>
<g mask="url(#mask0_723_2780)">
<path d="M1249.69 452.949C1162.31 452.949 1091.47 382.116 1091.47 294.737C1091.47 207.359 1162.31 136.525 1249.69 136.525C1337.06 136.525 1407.9 207.359 1407.9 294.737C1407.9 382.116 1337.06 452.949 1249.69 452.949ZM1249.69 20.2479C1098.09 20.2479 975.197 143.141 975.197 294.737C975.197 446.335 1098.09 569.227 1249.69 569.227C1401.28 569.227 1524.17 446.335 1524.17 294.737C1524.17 143.141 1401.28 20.2479 1249.69 20.2479Z" fill="#3E3E44"/>
</g>
<path d="M1060.49 658.91V586.649H1089C1094.48 586.649 1099.15 587.695 1103 589.789C1106.86 591.859 1109.8 594.74 1111.83 598.433C1113.87 602.103 1114.9 606.337 1114.9 611.136C1114.9 615.934 1113.86 620.168 1111.79 623.838C1109.72 627.507 1106.72 630.365 1102.79 632.412C1098.89 634.458 1094.16 635.482 1088.61 635.482H1070.44V623.238H1086.14C1089.08 623.238 1091.5 622.732 1093.41 621.721C1095.34 620.686 1096.77 619.263 1097.71 617.451C1098.68 615.617 1099.16 613.511 1099.16 611.136C1099.16 608.736 1098.68 606.643 1097.71 604.855C1096.77 603.044 1095.34 601.644 1093.41 600.656C1091.48 599.645 1089.03 599.139 1086.07 599.139H1075.77V658.91H1060.49ZM1138.54 659.933C1135.08 659.933 1132 659.334 1129.29 658.134C1126.59 656.911 1124.45 655.111 1122.87 652.735C1121.32 650.336 1120.54 647.349 1120.54 643.773C1120.54 640.762 1121.09 638.234 1122.2 636.187C1123.3 634.141 1124.81 632.494 1126.72 631.248C1128.62 630.001 1130.79 629.06 1133.21 628.425C1135.65 627.79 1138.22 627.343 1140.9 627.084C1144.05 626.755 1146.59 626.449 1148.52 626.167C1150.45 625.861 1151.85 625.414 1152.72 624.826C1153.59 624.238 1154.03 623.367 1154.03 622.215V622.003C1154.03 619.768 1153.32 618.04 1151.91 616.816C1150.52 615.593 1148.54 614.982 1145.98 614.982C1143.28 614.982 1141.12 615.581 1139.52 616.781C1137.92 617.957 1136.87 619.439 1136.35 621.227L1122.45 620.098C1123.15 616.805 1124.54 613.958 1126.61 611.559C1128.68 609.136 1131.35 607.278 1134.62 605.984C1137.91 604.667 1141.72 604.008 1146.05 604.008C1149.06 604.008 1151.94 604.361 1154.7 605.067C1157.47 605.772 1159.93 606.866 1162.07 608.348C1164.23 609.83 1165.94 611.735 1167.19 614.064C1168.43 616.369 1169.06 619.133 1169.06 622.356V658.91H1154.8V651.395H1154.38C1153.51 653.088 1152.34 654.582 1150.89 655.876C1149.43 657.146 1147.67 658.146 1145.63 658.875C1143.58 659.581 1141.22 659.933 1138.54 659.933ZM1142.84 649.56C1145.05 649.56 1147 649.125 1148.7 648.254C1150.39 647.361 1151.72 646.161 1152.68 644.655C1153.65 643.15 1154.13 641.445 1154.13 639.539V633.788C1153.66 634.094 1153.01 634.376 1152.19 634.635C1151.39 634.87 1150.49 635.093 1149.47 635.305C1148.46 635.493 1147.45 635.67 1146.44 635.834C1145.43 635.976 1144.51 636.105 1143.69 636.223C1141.92 636.481 1140.38 636.893 1139.07 637.457C1137.75 638.022 1136.72 638.787 1136 639.751C1135.27 640.692 1134.9 641.868 1134.9 643.279C1134.9 645.326 1135.64 646.89 1137.12 647.972C1138.63 649.031 1140.54 649.56 1142.84 649.56ZM1180.72 658.91V604.714H1195.29V614.17H1195.85C1196.84 610.806 1198.5 608.266 1200.83 606.549C1203.16 604.808 1205.84 603.938 1208.87 603.938C1209.63 603.938 1210.44 603.985 1211.31 604.079C1212.18 604.173 1212.94 604.302 1213.6 604.467V617.804C1212.9 617.593 1211.92 617.404 1210.67 617.24C1209.43 617.075 1208.29 616.993 1207.25 616.993C1205.04 616.993 1203.06 617.475 1201.32 618.439C1199.61 619.38 1198.24 620.698 1197.23 622.391C1196.24 624.085 1195.75 626.037 1195.75 628.248V658.91H1180.72ZM1252.92 604.714V616.005H1220.28V604.714H1252.92ZM1227.69 591.729H1242.72V642.256C1242.72 643.644 1242.93 644.726 1243.36 645.502C1243.78 646.255 1244.37 646.784 1245.12 647.09C1245.9 647.396 1246.79 647.549 1247.8 647.549C1248.51 647.549 1249.21 647.49 1249.92 647.372C1250.62 647.231 1251.17 647.125 1251.54 647.055L1253.91 658.24C1253.15 658.475 1252.09 658.745 1250.73 659.051C1249.37 659.381 1247.71 659.581 1245.76 659.651C1242.13 659.792 1238.96 659.31 1236.23 658.204C1233.52 657.099 1231.42 655.382 1229.91 653.053C1228.41 650.724 1227.67 647.784 1227.69 644.232V591.729ZM1277.74 627.578V658.91H1262.71V604.714H1277.03V614.276H1277.67C1278.87 611.124 1280.88 608.63 1283.7 606.796C1286.53 604.937 1289.95 604.008 1293.97 604.008C1297.73 604.008 1301.02 604.832 1303.81 606.478C1306.61 608.125 1308.79 610.477 1310.34 613.535C1311.89 616.569 1312.67 620.192 1312.67 624.402V658.91H1297.64V627.084C1297.66 623.767 1296.82 621.18 1295.1 619.322C1293.38 617.44 1291.02 616.499 1288.01 616.499C1285.98 616.499 1284.2 616.934 1282.64 617.804C1281.12 618.675 1279.92 619.945 1279.05 621.615C1278.2 623.262 1277.76 625.249 1277.74 627.578ZM1349.22 659.969C1343.64 659.969 1338.84 658.84 1334.82 656.581C1330.82 654.3 1327.74 651.077 1325.58 646.914C1323.41 642.727 1322.33 637.775 1322.33 632.059C1322.33 626.484 1323.41 621.591 1325.58 617.381C1327.74 613.17 1330.79 609.889 1334.71 607.537C1338.67 605.184 1343.3 604.008 1348.62 604.008C1352.19 604.008 1355.52 604.585 1358.6 605.737C1361.71 606.866 1364.41 608.572 1366.72 610.853C1369.05 613.135 1370.86 616.005 1372.15 619.463C1373.44 622.897 1374.09 626.919 1374.09 631.53V635.658H1328.33V626.343H1359.94C1359.94 624.179 1359.47 622.262 1358.53 620.592C1357.59 618.922 1356.29 617.616 1354.61 616.675C1352.97 615.711 1351.05 615.229 1348.86 615.229C1346.58 615.229 1344.56 615.758 1342.79 616.816C1341.05 617.851 1339.69 619.251 1338.7 621.015C1337.71 622.756 1337.21 624.696 1337.18 626.837V635.693C1337.18 638.375 1337.68 640.692 1338.67 642.644C1339.68 644.597 1341.1 646.102 1342.94 647.161C1344.77 648.219 1346.95 648.748 1349.46 648.748C1351.13 648.748 1352.66 648.513 1354.05 648.043C1355.44 647.572 1356.63 646.867 1357.61 645.926C1358.6 644.985 1359.35 643.832 1359.87 642.468L1373.77 643.385C1373.07 646.725 1371.62 649.642 1369.43 652.136C1367.27 654.606 1364.47 656.534 1361.04 657.922C1357.63 659.287 1353.69 659.969 1349.22 659.969ZM1383.9 658.91V604.714H1398.47V614.17H1399.04C1400.03 610.806 1401.68 608.266 1404.01 606.549C1406.34 604.808 1409.02 603.938 1412.06 603.938C1412.81 603.938 1413.62 603.985 1414.49 604.079C1415.36 604.173 1416.13 604.302 1416.79 604.467V617.804C1416.08 617.593 1415.1 617.404 1413.86 617.24C1412.61 617.075 1411.47 616.993 1410.43 616.993C1408.22 616.993 1406.25 617.475 1404.51 618.439C1402.79 619.38 1401.43 620.698 1400.41 622.391C1399.43 624.085 1398.93 626.037 1398.93 628.248V658.91H1383.9ZM1469.65 620.168L1455.89 621.015C1455.65 619.839 1455.15 618.78 1454.37 617.84C1453.6 616.875 1452.57 616.111 1451.3 615.546C1450.06 614.958 1448.56 614.664 1446.82 614.664C1444.49 614.664 1442.53 615.158 1440.93 616.146C1439.33 617.11 1438.53 618.404 1438.53 620.027C1438.53 621.321 1439.05 622.415 1440.08 623.309C1441.12 624.202 1442.89 624.92 1445.41 625.461L1455.22 627.437C1460.49 628.519 1464.42 630.26 1467 632.659C1469.59 635.058 1470.88 638.21 1470.88 642.115C1470.88 645.667 1469.84 648.784 1467.74 651.465C1465.67 654.147 1462.83 656.24 1459.21 657.746C1455.61 659.228 1451.45 659.969 1446.75 659.969C1439.58 659.969 1433.86 658.475 1429.6 655.488C1425.37 652.477 1422.89 648.384 1422.16 643.209L1436.94 642.433C1437.39 644.62 1438.47 646.29 1440.19 647.443C1441.9 648.572 1444.1 649.136 1446.79 649.136C1449.42 649.136 1451.54 648.631 1453.14 647.619C1454.76 646.584 1455.58 645.255 1455.61 643.632C1455.58 642.268 1455.01 641.151 1453.88 640.28C1452.75 639.386 1451.01 638.704 1448.66 638.234L1439.27 636.364C1433.98 635.305 1430.04 633.47 1427.45 630.859C1424.89 628.248 1423.6 624.92 1423.6 620.874C1423.6 617.393 1424.54 614.394 1426.43 611.877C1428.33 609.36 1431 607.419 1434.44 606.055C1437.89 604.69 1441.94 604.008 1446.57 604.008C1453.42 604.008 1458.81 605.455 1462.73 608.348C1466.69 611.241 1468.99 615.182 1469.65 620.168Z" fill="#F39223"/>
<mask id="mask1_723_2780" style="mask-type:luminance" maskUnits="userSpaceOnUse" x="-518" y="-373" width="2561" height="1441">
<path d="M-517.122 -372.559H2042.88V1067.44H-517.122V-372.559Z" fill="white"/>
</mask>
<g mask="url(#mask1_723_2780)">
<path d="M605.639 276.182C605.501 274.738 605.362 273.293 605.223 271.849C605.417 273.71 605.611 275.571 605.75 277.459C605.695 277.043 605.667 276.598 605.639 276.182ZM574.554 167.283C574.303 166.783 574.054 166.311 573.831 165.811C574.777 167.645 575.721 169.506 576.61 171.395C575.915 170.034 575.249 168.645 574.554 167.283ZM502.967 535.313C502.675 534.439 502.326 533.565 502.034 532.69C502.734 534.73 503.491 536.711 504.366 538.635C503.841 537.527 503.374 536.421 502.967 535.313ZM888.593 384.498L869.265 354.699C904.794 341.734 931.865 321.707 950.478 294.635C969.089 267.565 978.393 233.725 978.393 193.118C978.393 135.593 960.207 91.6006 923.83 61.1459C887.45 30.6899 835.426 15.4619 767.747 15.4619H501.265V573.809H644.233V389.663H643.766V259.885H644.233V125.439H743.214C774.223 125.439 796.786 131.083 810.891 142.359C824.983 153.647 832.042 171.414 832.042 195.655C832.042 220.481 824.983 238.523 810.891 249.799C796.786 261.087 774.223 266.718 743.214 266.718H657.099V369.929H731.369L758.465 416.239L850.651 573.809H1011.39L888.593 384.498Z" fill="#3E3E44"/>
<path d="M123.499 233.533C122.624 236.04 121.808 238.429 121.051 240.877C120.527 242.451 120.059 243.967 119.652 245.481C119.593 245.597 119.536 245.715 119.536 245.831C119.011 247.696 118.487 249.503 117.963 251.309C117.496 253.173 117.029 254.98 116.621 256.787C116.447 257.487 116.272 258.187 116.155 258.887C115.747 260.576 115.397 262.265 115.048 264.015C114.581 266.345 114.172 268.677 113.765 271.008C113.532 272.465 113.3 273.98 113.124 275.437C113.065 275.845 113.008 276.196 112.949 276.545C112.659 278.352 112.483 280.159 112.251 282.024C121.983 143.372 225.199 30.1321 359.187 5.12946C341.12 1.74945 322.528 0.00140381 303.471 0.00140381C136.145 0.00140381 0 136.145 0 303.471C0 470.796 136.145 606.941 303.471 606.941C368.512 606.941 428.833 586.368 478.256 551.34V383.608C468.697 404.472 455.468 423.355 439.383 439.441C404.588 474.292 356.507 495.799 303.471 495.799C197.399 495.799 111.143 409.543 111.143 303.471C111.143 207.481 181.837 127.637 273.98 113.416C259.643 115.513 245.073 119.244 230.387 124.723C180.613 143.372 141.449 183.471 123.499 233.533Z" fill="#F39223"/>
<path d="M468.523 48.9568C468.466 48.9568 468.354 48.9008 468.295 48.8434V48.8568C468.211 48.7728 468.1 48.6901 467.99 48.6341C468.082 48.6808 468.158 48.7434 468.243 48.7954C468.179 48.7341 468.094 48.6541 467.998 48.6075C467.766 48.4315 467.532 48.3155 467.299 48.1995C467.124 48.0235 466.891 47.9074 466.6 47.7901C465.608 47.0914 464.56 46.4514 463.511 45.8101C462.346 45.0515 461.179 44.3528 460.014 43.6528C457.858 42.3128 455.702 41.0301 453.487 39.8061C452.495 39.2234 451.506 38.6408 450.456 38.1168C449.115 37.3008 447.716 36.6008 446.318 35.8434C446.318 35.8434 446.259 35.8434 446.259 35.7848C445.852 35.6101 445.502 35.3768 445.094 35.1448C444.22 34.6781 443.346 34.2701 442.471 33.8034C442.122 33.6288 441.772 33.4541 441.423 33.2794C440.14 32.5795 438.858 31.9381 437.518 31.2968C437.4 31.2395 437.227 31.1234 437.051 31.0648C436.176 30.6568 435.303 30.1901 434.428 29.7821C433.204 29.1994 432.039 28.6168 430.815 28.0928C429.708 27.5675 428.6 27.1008 427.551 26.5768C424.928 25.4114 422.306 24.2448 419.626 23.1381C418.926 22.8461 418.227 22.5555 417.468 22.2635C416.128 21.7394 414.788 21.1568 413.447 20.6314C412.748 20.3994 412.107 20.1661 411.466 19.8741C411.35 19.8741 411.174 19.8168 411.058 19.7581C409.368 19.1168 407.678 18.4754 405.987 17.8928C405.288 17.6008 404.53 17.3688 403.772 17.0768C403.074 16.8434 402.315 16.5528 401.558 16.3195C401.266 16.2035 401.034 16.0861 400.743 16.0274C398.935 15.3861 397.128 14.8034 395.322 14.2208C392.991 13.4634 390.659 12.7635 388.27 12.1234C388.152 12.0648 387.979 12.0061 387.862 11.9488C386.055 11.4235 384.19 10.9568 382.324 10.4328C381.916 10.3168 381.51 10.1995 381.102 10.0835C380.926 10.0248 380.751 10.0248 380.578 9.96613C379.12 9.55814 377.663 9.20877 376.147 8.85947C375.448 8.68344 374.748 8.51013 374.05 8.33414C372.243 7.86877 370.378 7.46078 368.571 7.0528C368.455 7.0528 368.338 6.99411 368.22 6.99411C367.055 6.70346 365.89 6.47012 364.724 6.23679C362.918 5.8288 361.052 5.47946 359.246 5.12878H359.187C225.199 30.1314 121.983 143.373 112.251 282.023C112.483 280.158 112.659 278.351 112.95 276.545C113.008 276.195 113.066 275.846 113.124 275.437C113.3 273.981 113.532 272.465 113.766 271.007C114.172 268.677 114.582 266.346 115.048 264.014C115.398 262.265 115.747 260.575 116.155 258.886C116.272 258.186 116.447 257.486 116.622 256.787C117.03 254.981 117.495 253.174 117.963 251.309C118.487 249.502 119.011 247.695 119.536 245.83C119.536 245.714 119.594 245.597 119.652 245.481C120.059 243.966 120.526 242.45 121.051 240.877C121.808 238.429 122.624 236.039 123.499 233.533C141.45 183.47 180.614 143.373 230.386 124.722C245.074 119.243 259.643 115.513 273.98 113.415C275.671 113.123 277.302 112.891 278.992 112.717C280.391 112.483 281.848 112.309 283.304 112.191C283.596 112.191 283.888 112.133 284.18 112.133C285.112 112.017 286.103 111.901 287.036 111.842C287.91 111.783 288.784 111.667 289.659 111.667C290.008 111.609 290.358 111.609 290.707 111.55C291.115 111.55 291.523 111.493 291.931 111.493C292.747 111.434 293.563 111.434 294.379 111.375C294.987 111.341 295.595 111.329 296.203 111.302C295.599 111.323 294.996 111.334 294.391 111.362C295.511 111.31 296.636 111.275 297.763 111.239C299.087 111.198 300.412 111.173 301.738 111.162C302.307 111.157 302.876 111.139 303.447 111.139C304.447 111.139 305.447 111.139 306.447 111.195C306.715 111.195 306.98 111.206 307.247 111.211C308.726 111.226 310.2 111.267 311.631 111.318H311.922C312.568 111.361 313.211 111.403 313.854 111.447C314.934 111.506 316.018 111.555 317.087 111.639C316.564 111.613 316.014 111.585 315.491 111.557C316.032 111.594 316.578 111.63 317.108 111.667C317.866 111.667 318.566 111.726 319.323 111.783C319.672 111.842 320.023 111.842 320.372 111.901C322.644 112.075 324.976 112.309 327.25 112.658C327.542 112.658 327.891 112.717 328.182 112.774C328.356 112.774 328.472 112.833 328.648 112.833C329.172 112.891 329.639 112.95 330.106 113.007C330.242 113.027 330.371 113.046 330.506 113.066C330.376 113.045 330.246 113.022 330.116 113.001C330.918 113.113 331.718 113.233 332.511 113.361C332.895 113.418 333.279 113.475 333.662 113.533C334.476 113.707 335.351 113.823 336.224 113.998C336.516 113.998 336.748 114.057 337.04 114.115C337.156 114.115 337.331 114.115 337.448 114.174C338.032 114.231 338.672 114.347 339.255 114.523C339.431 114.523 339.663 114.581 339.838 114.639C342.228 115.047 344.559 115.513 346.832 116.097C347.59 116.271 348.348 116.446 349.104 116.621C349.22 116.659 349.356 116.698 349.49 116.735C350.771 117.039 352.051 117.346 353.308 117.723C353.658 117.814 354.002 117.914 354.348 118.007C354.282 117.989 354.214 117.962 354.146 117.946C354.247 117.974 354.346 118.006 354.447 118.034C356.344 118.543 358.231 119.078 360.083 119.675C360.248 119.729 360.42 119.773 360.586 119.826C361.023 119.967 361.45 120.102 361.882 120.239C363.079 120.619 364.263 121.003 365.438 121.421C366.183 121.674 366.935 121.907 367.676 122.17C368.304 122.389 368.926 122.615 369.562 122.857C370.812 123.307 372.062 123.789 373.308 124.277C374.422 124.711 375.522 125.171 376.624 125.626C377.163 125.851 377.71 126.066 378.246 126.295C378.976 126.582 379.688 126.886 380.394 127.198C380.539 127.261 380.68 127.327 380.824 127.391C381.267 127.589 381.71 127.786 382.151 127.986C382.711 128.237 383.258 128.511 383.815 128.769C385.079 129.353 386.346 129.934 387.595 130.545C388.422 130.949 389.236 131.374 390.055 131.79C391.231 132.386 392.411 132.977 393.574 133.595C394.198 133.929 394.808 134.282 395.428 134.621C398.656 136.39 401.844 138.223 404.956 140.17C404.388 139.819 403.808 139.489 403.239 139.143C403.803 139.487 404.378 139.817 404.939 140.167C406.978 141.449 408.902 142.673 410.883 144.013C412.166 144.887 413.447 145.762 414.73 146.694C418.227 149.201 421.723 151.823 425.046 154.621C426.152 155.437 427.143 156.31 428.192 157.185C428.251 157.301 428.367 157.359 428.426 157.418C429.532 158.35 430.64 159.283 431.747 160.331C432.039 160.623 432.33 160.915 432.68 161.206C433.147 161.614 433.612 162.022 434.079 162.43C434.719 163.071 435.419 163.713 436.06 164.353C436.818 165.053 437.518 165.751 438.275 166.451C439.032 167.151 439.732 167.909 440.431 168.666C442.763 170.998 444.976 173.387 447.134 175.835C447.716 176.418 448.3 177.058 448.824 177.699C449.232 178.107 449.582 178.515 449.931 178.923C451.563 180.846 453.195 182.829 454.711 184.81C455.994 186.442 457.216 188.074 458.44 189.706C459.256 190.813 460.014 191.862 460.772 192.97C461.704 194.251 462.579 195.593 463.454 196.874C464.21 197.982 464.967 199.147 465.667 200.255C466.483 201.537 467.242 202.761 467.998 203.985C469.048 205.791 470.155 207.541 471.146 209.346C471.203 209.521 471.262 209.638 471.379 209.813C472.37 211.562 473.302 213.31 474.234 215.117C475.11 216.806 475.983 218.438 476.74 220.129C476.974 220.537 477.148 220.945 477.323 221.353C477.615 221.993 477.966 222.634 478.256 223.275V55.6008C477.498 55.0181 476.74 54.4928 475.924 53.9688C473.478 52.2794 471.028 50.5888 468.523 48.9568Z" fill="#F39223"/>
<mask id="mask2_723_2780" style="mask-type:luminance" maskUnits="userSpaceOnUse" x="112" y="5" width="367" height="278">
<path d="M112.251 5.12875H478.256V282.023H112.251V5.12875Z" fill="white"/>
</mask>
<g mask="url(#mask2_723_2780)">
<path d="M468.523 48.9568C468.466 48.9568 468.354 48.9008 468.295 48.8434V48.8568C468.211 48.7728 468.1 48.6901 467.99 48.6341C468.082 48.6808 468.158 48.7434 468.243 48.7954C468.179 48.7341 468.094 48.6541 467.998 48.6075C467.766 48.4315 467.532 48.3155 467.299 48.1995C467.124 48.0235 466.891 47.9074 466.6 47.7901C465.608 47.0914 464.56 46.4515 463.511 45.8101C462.346 45.0515 461.179 44.3528 460.014 43.6528C457.858 42.3128 455.702 41.0301 453.487 39.8061C452.495 39.2234 451.506 38.6408 450.456 38.1168C449.115 37.3008 447.716 36.6008 446.318 35.8434C446.318 35.8434 446.259 35.8435 446.259 35.7848C445.852 35.6101 445.502 35.3768 445.094 35.1448C444.22 34.6781 443.346 34.2701 442.471 33.8034C442.122 33.6288 441.772 33.4541 441.423 33.2794C440.14 32.5794 438.858 31.9381 437.518 31.2968C437.4 31.2395 437.227 31.1234 437.051 31.0648C436.176 30.6568 435.303 30.1901 434.428 29.7821C433.204 29.1995 432.039 28.6168 430.815 28.0928C429.708 27.5675 428.6 27.1008 427.551 26.5768C424.928 25.4114 422.306 24.2448 419.626 23.1381C418.926 22.8461 418.227 22.5555 417.468 22.2635C416.128 21.7395 414.788 21.1568 413.447 20.6314C412.748 20.3994 412.107 20.1661 411.466 19.8741C411.35 19.8741 411.174 19.8168 411.058 19.7581C409.368 19.1168 407.678 18.4755 405.987 17.8928C405.288 17.6008 404.53 17.3688 403.772 17.0768C403.074 16.8434 402.315 16.5528 401.558 16.3195C401.266 16.2035 401.034 16.0861 400.743 16.0274C398.935 15.3861 397.128 14.8035 395.322 14.2208C392.991 13.4635 390.659 12.7634 388.27 12.1234C388.152 12.0648 387.979 12.0061 387.862 11.9488C386.055 11.4235 384.19 10.9568 382.324 10.4328C381.916 10.3168 381.51 10.1995 381.102 10.0835C380.926 10.0248 380.751 10.0248 380.578 9.96613C379.12 9.55813 377.663 9.2088 376.147 8.85947C375.448 8.68347 374.748 8.51014 374.05 8.33414C372.243 7.8688 370.378 7.4608 368.571 7.0528C368.455 7.0528 368.338 6.99411 368.22 6.99411C367.055 6.70344 365.89 6.47012 364.724 6.23679C362.918 5.82879 361.052 5.47945 359.246 5.12878H359.187C225.199 30.1315 121.983 143.373 112.251 282.023C112.483 280.158 112.659 278.351 112.95 276.545C113.008 276.195 113.066 275.846 113.124 275.437C113.3 273.981 113.532 272.465 113.766 271.007C114.172 268.677 114.582 266.346 115.048 264.014C115.398 262.265 115.747 260.575 116.155 258.886C116.272 258.186 116.447 257.486 116.622 256.787C117.03 254.981 117.495 253.174 117.963 251.309C118.487 249.502 119.011 247.695 119.536 245.83C119.536 245.714 119.594 245.597 119.652 245.481C120.059 243.966 120.526 242.45 121.051 240.877C121.808 238.429 122.625 236.007 123.5 233.5C147 183 175 150.5 230.386 124.722C245.074 119.243 259.643 115.513 273.98 113.415C275.671 113.123 277.302 112.891 278.992 112.717C280.391 112.483 281.848 112.309 283.304 112.191C283.596 112.191 283.888 112.133 284.18 112.133C285.112 112.017 286.103 111.901 287.036 111.842C287.91 111.783 288.784 111.667 289.659 111.667C290.008 111.609 290.358 111.609 290.707 111.55C291.115 111.55 291.523 111.493 291.931 111.493C292.747 111.434 293.563 111.434 294.379 111.375C294.987 111.341 295.595 111.329 296.203 111.302C295.599 111.323 294.996 111.334 294.391 111.362C295.511 111.31 296.636 111.275 297.763 111.239C299.087 111.198 300.412 111.173 301.738 111.162C302.307 111.157 302.876 111.139 303.447 111.139C304.447 111.139 305.447 111.139 306.447 111.195C306.715 111.195 306.98 111.206 307.247 111.211C308.726 111.226 310.2 111.267 311.631 111.318H311.922C312.568 111.361 313.211 111.403 313.854 111.447C314.934 111.506 316.018 111.555 317.087 111.639C316.564 111.613 316.014 111.585 315.491 111.557C316.032 111.594 316.578 111.63 317.108 111.667C317.866 111.667 318.566 111.726 319.323 111.783C319.672 111.842 320.023 111.842 320.372 111.901C322.644 112.075 324.976 112.309 327.25 112.658C327.542 112.658 327.891 112.717 328.182 112.774C328.356 112.774 328.472 112.833 328.648 112.833C329.172 112.891 329.639 112.95 330.106 113.007C330.242 113.027 330.371 113.046 330.506 113.066C330.376 113.045 330.246 113.022 330.116 113.001C330.918 113.113 331.718 113.233 332.511 113.361C332.895 113.418 333.279 113.475 333.662 113.533C334.476 113.707 335.351 113.823 336.224 113.998C336.516 113.998 336.748 114.057 337.04 114.115C337.156 114.115 337.331 114.115 337.448 114.174C338.032 114.231 338.672 114.347 339.255 114.523C339.431 114.523 339.663 114.581 339.838 114.639C342.228 115.047 344.559 115.513 346.832 116.097C347.59 116.271 348.348 116.446 349.104 116.621C349.22 116.659 349.356 116.698 349.49 116.735C350.771 117.039 352.051 117.346 353.308 117.723C353.658 117.814 354.002 117.914 354.348 118.007C354.282 117.989 354.214 117.962 354.146 117.946C354.247 117.974 354.346 118.006 354.447 118.034C356.344 118.543 358.231 119.078 360.083 119.675C360.248 119.729 360.42 119.773 360.586 119.826C361.023 119.967 361.45 120.102 361.882 120.239C363.079 120.619 364.263 121.003 365.438 121.421C366.183 121.674 366.935 121.907 367.676 122.17C368.304 122.389 368.926 122.615 369.562 122.857C370.812 123.307 372.062 123.789 373.308 124.277C374.422 124.711 375.522 125.171 376.624 125.626C377.163 125.851 377.71 126.066 378.246 126.295C378.976 126.582 379.688 126.886 380.394 127.198C380.539 127.261 380.68 127.327 380.824 127.391C381.267 127.589 381.71 127.786 382.151 127.986C382.711 128.237 383.258 128.511 383.815 128.769C385.079 129.353 386.346 129.934 387.595 130.545C388.422 130.949 389.236 131.374 390.055 131.79C391.231 132.386 392.411 132.977 393.574 133.595C394.198 133.929 394.808 134.282 395.428 134.621C398.656 136.39 401.844 138.223 404.956 140.17C404.388 139.819 403.808 139.489 403.239 139.143C403.803 139.487 404.378 139.817 404.939 140.167C406.978 141.449 408.902 142.673 410.883 144.013C412.166 144.887 413.447 145.762 414.73 146.694C418.227 149.201 421.723 151.823 425.046 154.621C426.152 155.437 427.143 156.31 428.192 157.185C428.251 157.301 428.367 157.359 428.426 157.418C429.532 158.35 430.64 159.283 431.747 160.331C432.039 160.623 432.33 160.915 432.68 161.206C433.147 161.614 433.612 162.022 434.079 162.43C434.719 163.071 435.419 163.713 436.06 164.353C436.818 165.053 437.518 165.751 438.275 166.451C439.032 167.151 439.732 167.909 440.431 168.666C442.763 170.998 444.976 173.387 447.134 175.835C447.716 176.418 448.3 177.058 448.824 177.699C449.232 178.107 449.582 178.515 449.931 178.923C451.563 180.846 453.195 182.829 454.711 184.81C455.994 186.442 457.216 188.074 458.44 189.706C459.256 190.813 460.014 191.862 460.772 192.97C461.704 194.251 462.579 195.593 463.454 196.874C464.21 197.982 464.967 199.147 465.667 200.255C466.483 201.537 467.242 202.761 467.998 203.985C469.048 205.791 470.155 207.541 471.146 209.346C471.203 209.521 471.262 209.638 471.379 209.813C472.37 211.562 473.302 213.31 474.234 215.117C475.11 216.806 475.983 218.438 476.74 220.129C476.974 220.537 477.148 220.945 477.323 221.353C477.615 221.993 477.966 222.634 478.256 223.275V55.6008C477.498 55.0181 476.74 54.4928 475.924 53.9688C473.478 52.2794 471.028 50.5888 468.523 48.9568Z" fill="#EA590E"/>
</g>
<mask id="mask3_723_2780" style="mask-type:luminance" maskUnits="userSpaceOnUse" x="249" y="255" width="89" height="88">
<path d="M249.752 255.44H337.053V342.738H249.752V255.44Z" fill="white"/>
</mask>
<g mask="url(#mask3_723_2780)">
<g opacity="0.800003">
<mask id="mask4_723_2780" style="mask-type:luminance" maskUnits="userSpaceOnUse" x="249" y="255" width="89" height="88">
<path d="M293.403 267.158C286.377 271.236 279.968 276.256 274.36 282.07C271.66 284.837 269.151 287.796 266.843 290.917C273.952 293.268 280.42 297.044 285.901 301.914C288.177 299.064 290.689 296.404 293.403 293.974C298.969 288.982 305.407 284.917 312.444 282.07C320.043 278.969 328.349 277.264 337.053 277.264V255.44C321.161 255.44 306.252 259.71 293.403 267.158ZM249.752 342.738H271.579C271.579 335.454 272.777 328.444 274.976 321.898C270.216 316.14 263.516 312.034 255.892 310.589C251.933 320.549 249.752 331.392 249.752 342.738Z" fill="white"/>
</mask>
<g mask="url(#mask4_723_2780)">
<path d="M337.054 342.738H249.751V255.44H337.054V342.738Z" fill="#F39223"/>
</g>
</g>
</g>
<mask id="mask5_723_2780" style="mask-type:luminance" maskUnits="userSpaceOnUse" x="222" y="266" width="99" height="99">
<path d="M222.471 266.356H320.683V364.566H222.471V266.356Z" fill="white"/>
</mask>
<g mask="url(#mask5_723_2780)">
<g opacity="0.800003">
<mask id="mask6_723_2780" style="mask-type:luminance" maskUnits="userSpaceOnUse" x="249" y="288" width="45" height="55">
<path d="M249.752 310.004C251.852 310.004 253.911 310.213 255.892 310.593C263.517 312.037 270.215 316.144 274.976 321.902C279.667 327.564 282.491 334.833 282.491 342.742C282.491 330.494 286.544 319.159 293.401 310.049C291.191 307.089 288.668 304.361 285.901 301.92C280.42 297.048 273.952 293.27 266.843 290.921C261.469 289.138 255.712 288.182 249.752 288.182V310.004Z" fill="white"/>
</mask>
<g mask="url(#mask6_723_2780)">
<path d="M249.752 310.004C251.852 310.004 253.911 310.213 255.892 310.593C263.517 312.037 270.215 316.144 274.976 321.902C279.667 327.564 282.491 334.833 282.491 342.742C282.491 330.494 286.544 319.159 293.401 310.049C291.191 307.089 288.668 304.361 285.901 301.92C280.42 297.048 273.952 293.27 266.843 290.921C261.469 289.138 255.712 288.182 249.752 288.182V310.004Z" fill="url(#paint0_linear_723_2780)"/>
</g>
</g>
</g>
<mask id="mask7_723_2780" style="mask-type:luminance" maskUnits="userSpaceOnUse" x="282" y="288" width="56" height="55">
<path d="M282.489 288.178H337.053V342.738H282.489V288.178Z" fill="white"/>
</mask>
<g mask="url(#mask7_723_2780)">
<g opacity="0.800003">
<path d="M319.961 290.917C324.405 296.933 328.104 303.534 330.915 310.589C332.891 310.208 334.951 310.001 337.053 310.001V288.178C331.089 288.178 325.336 289.134 319.961 290.917ZM293.403 310.045C286.544 319.156 282.489 330.49 282.489 342.738H304.316C304.316 334.829 307.137 327.56 311.831 321.898C309.363 314.57 305.637 307.82 300.905 301.916C298.133 304.358 295.612 307.085 293.403 310.045Z" fill="#F39223"/>
<mask id="mask8_723_2780" style="mask-type:luminance" maskUnits="userSpaceOnUse" x="282" y="288" width="56" height="55">
<path d="M319.961 290.917C324.405 296.933 328.104 303.534 330.915 310.589C332.891 310.208 334.951 310 337.053 310V288.178C331.089 288.178 325.336 289.134 319.961 290.917ZM293.403 310.045C286.544 319.156 282.489 330.49 282.489 342.738H304.316C304.316 334.829 307.137 327.56 311.831 321.898C309.363 314.57 305.637 307.82 300.905 301.914C298.133 304.357 295.612 307.085 293.403 310.045Z" fill="white"/>
</mask>
<g mask="url(#mask8_723_2780)">
<path d="M337.053 342.738H282.489V288.178H337.053V342.738Z" fill="#F39223"/>
</g>
</g>
</g>
<mask id="mask9_723_2780" style="mask-type:luminance" maskUnits="userSpaceOnUse" x="213" y="220" width="164" height="164">
<path d="M213.284 220.307H376.19V383.211H213.284V220.307Z" fill="white"/>
</mask>
<g mask="url(#mask9_723_2780)">
<g opacity="0.800003">
<mask id="mask10_723_2780" style="mask-type:luminance" maskUnits="userSpaceOnUse" x="251" y="258" width="88" height="88">
<path d="M251.086 279.935C259.787 279.935 268.097 281.642 275.694 284.741C281.302 278.927 287.711 273.907 294.735 269.83C281.89 262.382 266.979 258.111 251.086 258.111V279.935ZM294.735 296.646C297.453 299.075 299.962 301.735 302.241 304.587C306.971 310.491 310.697 317.242 313.165 324.57C315.361 331.117 316.563 338.126 316.563 345.41H338.386H338.389C338.389 334.062 336.202 323.221 332.249 313.261C329.438 306.207 325.739 299.605 321.295 293.589C318.987 290.466 316.477 287.509 313.778 284.741C306.741 287.589 300.303 291.654 294.735 296.646Z" fill="white"/>
</mask>
<g mask="url(#mask10_723_2780)">
<path d="M251.086 279.935C259.787 279.935 268.097 281.642 275.694 284.741C281.302 278.927 287.711 273.907 294.735 269.83C281.89 262.382 266.979 258.111 251.086 258.111V279.935ZM294.735 296.646C297.453 299.075 299.962 301.735 302.241 304.587C306.971 310.491 310.697 317.242 313.165 324.57C315.361 331.117 316.563 338.126 316.563 345.41H338.386H338.389C338.389 334.062 336.202 323.221 332.249 313.261C329.438 306.207 325.739 299.605 321.295 293.589C318.987 290.466 316.477 287.509 313.778 284.741C306.741 287.589 300.303 291.654 294.735 296.646Z" fill="url(#paint1_linear_723_2780)"/>
</g>
</g>
</g>
</g>
</g>
<defs>
<linearGradient id="paint0_linear_723_2780" x1="247.024" y1="290.909" x2="290.674" y2="334.56" gradientUnits="userSpaceOnUse">
<stop stop-color="#E41136"/>
<stop offset="1" stop-color="#E41136"/>
</linearGradient>
<linearGradient id="paint1_linear_723_2780" x1="264.923" y1="250.122" x2="324.55" y2="353.4" gradientUnits="userSpaceOnUse">
<stop stop-color="#E41136"/>
<stop offset="1" stop-color="#E41136"/>
</linearGradient>
<clipPath id="clip0_723_2780">
<rect width="1524.17" height="663.261" fill="white"/>
</clipPath>
</defs>
</svg>
